<svg viewBox="0 0 67.7 67.7" xml:space="preserve" xmlns:xlink="http://www.w3.org/1999/xlink" xmlns="http://www.w3.org/2000/svg"><defs><linearGradient id="a"><stop style="stop-color:#bee168;stop-opacity:1" offset="0"/><stop style="stop-color:#54b46b;stop-opacity:1" offset="1"/></linearGradient><linearGradient xlink:href="#a" id="b" x1="55.9" y1="2" x2="51.6" y2="116.9" gradientUnits="userSpaceOnUse"/></defs><rect style="fill:url(#b);fill-opacity:1;stroke:none;stroke-width:1.10635;stroke-linecap:round;stroke-linejoin:miter;stroke-dasharray:none;stroke-opacity:1" width="67.7" height="67.7" ry="5.6"/><path style="fill:#473b78;fill-opacity:1;stroke:#473b78;stroke-width:5.91;stroke-linecap:round;stroke-linejoin:miter;stroke-dasharray:none;stroke-opacity:1" d="m73.7 119.7-8.4 7.8.5 7.5-4-1.4-8.9 3.7-2.3 10.2 6 8.6 4.2-.4-1.1 8.2 10 8.3 7.6-1.8 4-5.7 2.7 4 12.8-1 4.3-6.7-1.5-11.1-2.8-1 6.4-3 1.7-7.8-5.1-9.8-11 .1-2.4 1.9-1.7-7.5zm8.9 21.6.5 4.2 3 2-5.7 2.4-.8 3.5-1-2.1L73 149l.5-.8-1-7 4.8 2.5z" transform="translate(-41.5 -108) scale(.96976)"/><path style="fill:#ffffeb;fill-opacity:1;stroke-width:.510258;stroke-linecap:round;stroke-linejoin:round" d="m73.7 119.7-8.4 7.8.5 7.5-4-1.4-8.9 3.7-2.3 10.2 6 8.6 4.2-.4-1.1 8.2 10 8.3 7.6-1.8 4-5.7 2.7 4 12.8-1 4.3-6.7-1.5-11.1-2.8-1 6.4-3 1.7-7.8-5.1-9.8-11 .1-2.4 1.9-1.7-7.5zm8.9 21.6.5 4.2 3 2-5.7 2.4-.8 3.5-1-2.1L73 149l.5-.8-1-7 4.8 2.5z" transform="translate(-41.5 -108) scale(.96976)"/><path style="fill:#f2a65e;fill-opacity:1;stroke-width:.516986;stroke-linecap:round;stroke-linejoin:round" d="m68 153.5-.7-10.5 7.3-7.5 9.7 1.5 7.2 8.7L87 156l-7.2 3.4z" transform="translate(-41.5 -108) scale(.96976)"/></svg>