# Made in Blockbench 4.6.5
mtllib mod_test0.mtl

o cube
v 1.9375 0.125 0.5
v 1.9375 -1.1875 0.5
v -1.9375 0.125 0.5
v -1.9375 -1.1875 0.5
v -1.9375 -1.1875 -0.5
v -1.9375 0.125 -0.5
v 1.9375 -1.1875 -0.5
v 1.9375 0.125 -0.5
vt 0 0.421875
vt 0.96875 0.421875
vt 0.96875 0.671875
vt 0 0.671875
vt 0.25 0.421875
vt 0 0.421875
vt 0 0.09375
vt 0.25 0.09375
vt 0.5 0.09375
vt 0.5 0.421875
vt 0.25 0.421875
vt 0.25 0.09375
vt 0.96875 1
vt 0 1
vt 0 0.671875
vt 0.96875 0.671875
vn 0 1 0
vn 1 0 0
vn -1 0 0
vn 0 0 -1
usemtl m_00e6713e-427d-af60-4aa6-e9512cf8017e
f 3/1/1 1/2/1 8/3/1 6/4/1
f 8/5/2 1/6/2 2/7/2 7/8/2
f 4/9/3 3/10/3 6/11/3 5/12/3
f 6/13/4 8/14/4 7/15/4 5/16/4