# Made in Blockbench 4.6.5
mtllib mod_water.mtl

o circle
v 0 0 0
v 0.7284868669221147 0 2.7187499999999996
v 1.9902631330778848 0 1.9902631330778853
v 2.7187499999999996 0 0.7284868669221147
v 2.7187499999999996 0 -0.728486866922115
v 1.9902631330778853 0 -1.9902631330778848
v 0.7284868669221156 0 -2.7187499999999996
v -0.7284868669221136 0 -2.71875
v -1.9902631330778848 0 -1.9902631330778855
v -2.7187499999999996 0 -0.7284868669221144
v -2.71875 0 0.7284868669221135
v -1.9902631330778855 0 1.9902631330778844
v -0.7284868669221145 0 2.7187499999999996
vt 2.220446049250313e-16 -1.8146562201825818
vt 1.4073281100912913 -1.4375650126105608
vt 0 1
vt 2.71875 -0.4569749999999999
vt 2.71875 1
vt 0 0.27151250000000005
vt 2.8146572793425935 -0.4073275805114849
vt 2.4375640953509703 1
vt 0 -0.4073275805114833
vt 2.8146562201825818 -0.4073281100912911
vt 2.437565012610561 1
vt 0 -0.40732811009129133
vt 1.456975 1
vt 0 1
vt 0.7284875 -1.71875
vt 1.4073275805114847 1
vt 0 0.6229068160083759
vt 1.4073275805114847 -1.8146572793425935
vt 1.407328110091291 1
vt 0 0.622908792427979
vt 1.4073281100912913 -1.8146562201825818
vt 0 1
vt 0 -0.4569749999999999
vt 2.71875 0.27151250000000005
vt 0 0.9999999999999988
vt 0.3770931839916245 -0.40732758051148554
vt 2.8146572793425935 1
vt 0 0.9999999999999998
vt 0.37709120757202097 -0.40732811009129133
vt 2.8146562201825818 1
vt 0 -1.71875
vt 1.456975 -1.71875
vt 0.7284875 1
vt 0 -1.8146572793425935
vt 1.4073275805114849 -1.4375640953509703
vt 1.5543122344752192e-15 1
vn 0 1 0
vn 0 1 0
vn 0 1 0
vn 0 1 0
vn 0 1 0
vn 0 1 0
vn 0 1 0
vn 0 1 0
vn 0 1 0
vn 0 1 0
vn 0 1 0
vn 0 1 0
usemtl none
f 3/1/1 4/2/1 1/3/1
f 4/4/2 5/5/2 1/6/2
f 5/7/3 6/8/3 1/9/3
f 6/10/4 7/11/4 1/12/4
f 7/13/5 8/14/5 1/15/5
f 8/16/6 9/17/6 1/18/6
f 9/19/7 10/20/7 1/21/7
f 10/22/8 11/23/8 1/24/8
f 11/25/9 12/26/9 1/27/9
f 12/28/10 13/29/10 1/30/10
f 13/31/11 2/32/11 1/33/11
f 2/34/12 3/35/12 1/36/12